<?xml version="1.0" encoding="utf-8"?>
<!-- Generator: Adobe Illustrator 28.3.0, SVG Export Plug-In . SVG Version: 6.00 Build 0)  -->
<svg version="1.1" id="Capa_1" transform="matrix(-1, 0, 0, 1, 0, 0)"
	 xmlns="http://www.w3.org/2000/svg" xmlns:xlink="http://www.w3.org/1999/xlink" x="0px" y="0px" viewBox="0 0 652 598.1"
	 style="enable-background:new 0 0 652 598.1;" xml:space="preserve">
<style type="text/css">
	.st0{stroke:#000000;stroke-width:3.9654;stroke-miterlimit:15.8615;}
</style>
<g id="SVGRepo_bgCarrier">
</g>
<g id="SVGRepo_tracerCarrier">
</g>
<g id="SVGRepo_iconCarrier">
	<g>
		<path class="st0" d="M54.4,41.6c0,0-1.5-33.6-2.2-36.4c-0.7-2.8,17.7,27.3,17.7,27.3l4.4-27.3l30.3,38.5
			c53.9,11.9,163.8,96.7,163.8,96.7c40.6,42.7,133.5,27.3,133.5,27.3c77.5-28.7,161.5-0.7,161.5-0.7C677,194.3,648.9,307,648.9,307
			c-14,24.5-7.4,84.8-7.4,84.8c-49.4-37.8-25.8-134.5-25.8-134.5c-4.4-48.3-25.8-58.1-25.8-58.1s-2.9,0,0,3.5
			c29.7,35.2-5.9,95.9-5.9,95.9c-16.2,57.4,14.7,79.8,14.7,79.8c31.7,32.2,22.1,91,22.1,91c7.4,15.4,5.9,42,5.9,42
			c-6.7,7-5.2,18.9-5.2,18.9c11.8,25.9-5.9,28-5.9,28h-29.5c-16.2-4.9,11.8-26.6,11.8-26.6c5.2-6.3,2.2-14.7,2.2-14.7
			c-3.7-14-8.9-79.8-8.9-79.8c-14-12.6-36.1-56.8-36.1-56.8c-9.6-1.4-3.7,8.4-3.7,8.4c11,23.8-6.7,81.9-6.7,81.9
			c0.7,43.4-14,45.5-14,45.5c-11,7.7-6.6,16.1-6.6,16.1c8.9,12.6-2.9,17.5-2.9,17.5h-35.4c-14,0,0.7-13.3,0.7-13.3
			c11.8-4.9,23.6-21.7,32.5-42c8.9-20.3-2.2-97.4-2.2-97.4c-17-30.8-36.9-91-36.9-91c-11.1-12.6-39.1-0.7-39.1-0.7
			c-42.8,35-158.6,21-158.6,21c-33.9,6.3-7.4,121.2-7.4,121.2c11.1,30.8,6.6,59.5,6.6,59.5c-5.9,2.1-4.4,12.6-4.4,12.6
			c9.6,14,4.4,21.7,4.4,21.7h-36.1c-16.2-0.7,4.4-18.9,4.4-18.9c9.6-4.9,14-30.8,14-30.8c0-28.7-12.5-56.7-12.5-56.7
			c-8.9-8.4-6.6,25.9-6.6,25.9c2.2,32.9-4.4,52.5-4.4,52.5c-10.3,7-8.1,19.6-8.1,19.6c4.4,18.9-15.5,15.4-15.5,15.4
			c-24.3,0-26.6-2.8-26.6-2.8c-2.9-8.4,19.9-20.3,19.9-20.3c22.9-11.2,14-84.1,14-84.1c-8.9-38.5-17.7-113.4-17.7-113.4
			c-40.6-28-32.5-88.3-32.5-88.3C139.2,219.5,110.5,127,110.5,127c-8.9-10.5-19.9-1.4-19.9-1.4c-10.3,21-42.8,20.3-42.8,20.3
			c-14.7,23.8-35.4,11.9-35.4,11.9c-22.9-18.9,14.8-64.4,14.8-64.4C33.8,85.7,54.4,41.6,54.4,41.6z"/>
	</g>
</g>
</svg>
